<svg width="198" height="104" viewBox="0 0 198 104" fill="none" xmlns="http://www.w3.org/2000/svg">
<path d="M1.01471 45.1171C1.01471 44.4531 1.13532 43.7991 1.38109 43.1531C1.62459 42.5081 1.77023 42.1481 1.81461 42.0691L16.6224 9.06705C17.0229 8.24605 17.6112 7.61105 18.3895 7.16205C19.1678 6.71305 20.0905 6.46905 21.1578 6.43005H26.6286H30.7635C31.9195 6.46905 32.8742 6.74305 33.632 7.25005C34.3875 7.75805 34.8984 8.36405 35.1658 9.06705L50.1067 42.0691C50.1511 42.2651 50.2842 42.6651 50.5072 43.2701C50.7291 43.8761 50.8417 44.4531 50.8417 44.9991C50.8417 46.4061 49.952 47.2271 48.1735 47.4611H39.0355C38.1025 47.4611 37.3117 47.3151 36.6688 47.0221C36.0225 46.7291 35.6106 46.3091 35.4343 45.7611L33.3668 39.9001H18.4896L16.4233 45.7611C16.2447 46.3091 15.8441 46.7291 15.2217 47.0221C14.5982 47.3151 13.8211 47.4611 12.8869 47.4611H3.61581C1.88174 47.2281 1.01471 46.4461 1.01471 45.1171ZM26.6274 29.9931H30.9626L25.6933 16.2181L20.4911 29.9931H26.6274Z" fill="#B42DCC"/>
<path d="M57.9718 47.403C57.2152 47.403 56.5609 47.16 56.0045 46.671C55.447 46.183 55.1705 45.567 55.1705 44.824V8.95001C55.1705 8.20801 55.447 7.58201 56.0045 7.07401C56.5598 6.56701 57.214 6.31201 57.9718 6.31201H66.9767C67.7322 6.31201 68.3876 6.56701 68.944 7.07401C69.4993 7.58201 69.778 8.20801 69.778 8.95001V35.211H88.12C88.9642 35.211 89.6868 35.445 90.2875 35.914C90.8872 36.383 91.1876 36.97 91.1876 37.673V45.059C91.1876 45.724 90.8872 46.29 90.2875 46.759C89.6868 47.228 88.9642 47.462 88.12 47.462H59.7059L57.9718 47.403Z" fill="#B42DCC"/>
<path d="M98.3833 47.403C97.6278 47.403 96.9724 47.16 96.416 46.671C95.8596 46.183 95.5831 45.567 95.5831 44.824V8.95001C95.5831 8.20801 95.8596 7.58201 96.416 7.07401C96.9712 6.56701 97.6266 6.31201 98.3833 6.31201H107.388C108.144 6.31201 108.799 6.56701 109.355 7.07401C109.911 7.58201 110.19 8.20801 110.19 8.95001V35.211H128.53C129.375 35.211 130.098 35.445 130.699 35.914C131.299 36.383 131.599 36.97 131.599 37.673V45.059C131.599 45.724 131.299 46.29 130.699 46.759C130.098 47.228 129.375 47.462 128.53 47.462H100.118L98.3833 47.403Z" fill="#B42DCC"/>
<path d="M0 99.4631V76.2041V57.9891C0 57.2471 0.372073 56.6141 1.11736 56.0901C1.86264 55.5651 2.75812 55.3031 3.80265 55.3031H19.9793C27.3343 55.2601 32.9017 56.4071 36.6782 58.7431C40.4546 61.0791 42.4925 64.6291 42.7906 69.3891C42.7906 69.5641 42.802 69.9361 42.8282 70.5021C42.8521 71.0711 42.8657 71.7471 42.8657 72.5331C42.8657 73.6261 42.8396 74.4111 42.7918 74.8921C42.6427 77.7751 41.7097 80.4941 39.9961 83.0491C38.2825 85.6041 35.5221 87.7011 31.7206 89.3391C27.9191 90.9771 22.9615 91.7961 16.8479 91.7961V98.7411C16.8479 99.7021 16.3371 100.509 15.3198 101.165C14.3003 101.82 13.0442 102.147 11.5547 102.147H4.10076C2.9561 102.147 1.98666 101.885 1.19245 101.361C0.397105 100.838 0 100.206 0 99.4631ZM13.6427 79.0211H18.0404C20.3764 79.0211 22.4768 78.6391 24.3395 77.8741C26.2032 77.1111 27.1363 75.3521 27.1363 72.6001C27.1363 70.5921 26.54 69.0951 25.3464 68.1121C24.1529 67.1301 22.3153 66.5951 19.8302 66.5071H13.6427C13.8406 66.5071 13.9408 66.4421 13.9408 66.3111V79.2831C13.9408 79.1091 13.8406 79.0211 13.6427 79.0211Z" fill="#B42DCC"/>
<path d="M66.5713 67.49V72.797H87.5952C88.3905 72.797 89.0983 73.071 89.7206 73.617C90.3408 74.163 90.6525 74.851 90.6525 75.68V81.381C90.6525 82.124 90.3408 82.789 89.7206 83.378C89.0983 83.968 88.3905 84.263 87.5952 84.263H66.5713V90.094H88.6374C89.4817 90.094 90.2145 90.368 90.8369 90.913C91.4581 91.46 91.7699 92.169 91.7699 93.043V98.678C91.7699 99.464 91.4581 100.152 90.8369 100.741C90.2145 101.331 89.4817 101.626 88.6374 101.626H53.4509C52.6055 101.626 51.8739 101.331 51.2526 100.741C50.6291 100.152 50.3196 99.464 50.3196 98.678V98.48V93.042V64.607V58.9071C50.3196 58.0771 50.6291 57.39 51.2526 56.843C51.8739 56.297 52.6055 56.024 53.4509 56.024H88.6374C89.4817 56.024 90.2145 56.297 90.8369 56.843C91.4581 57.39 91.7699 58.0771 91.7699 58.9071V64.607C91.7699 65.35 91.4456 66.0161 90.8005 66.606C90.153 67.195 89.4328 67.49 88.6386 67.49H66.5713Z" fill="#B42DCC"/>
<path d="M141.568 55.959C142.412 55.959 143.157 56.232 143.805 56.778C144.449 57.325 144.774 57.947 144.774 58.646V66.246C144.774 66.989 144.449 67.644 143.805 68.211C143.157 68.78 142.412 69.063 141.568 69.063H129.789V98.678C129.789 99.508 129.503 100.207 128.932 100.774C128.361 101.343 127.652 101.626 126.807 101.626H116.893C116.047 101.626 115.337 101.353 114.767 100.806C114.195 100.261 113.909 99.573 113.909 98.743L114.433 69.063H102.504C101.559 69.063 100.777 68.779 100.156 68.211C99.5338 67.645 99.2243 66.99 99.2243 66.246V58.646C99.2243 57.904 99.5338 57.27 100.156 56.746C100.777 56.222 101.559 55.96 102.504 55.96L141.568 55.959Z" fill="#B42DCC"/>
<path d="M147.68 93.4349C147.68 92.6489 148.127 91.7319 149.022 90.6829L151.781 87.5379C152.576 86.5339 153.209 85.8239 153.681 85.4079C154.153 84.9929 154.662 84.7859 155.21 84.7859C155.658 84.7859 156.203 84.9169 156.851 85.1789C157.497 85.4409 158.39 85.8789 159.534 86.4899C159.683 86.5769 160.95 87.3409 163.336 88.7829C165.722 90.2239 168.704 90.8579 172.282 90.6819C173.476 90.6389 174.408 90.3449 175.078 89.7979C175.748 89.2519 176.084 88.5859 176.084 87.7989C176.084 86.7509 175.487 85.7909 174.295 84.9159C173.103 84.0429 171.412 83.5409 169.225 83.4099H169.299C164.925 82.6229 161.52 81.6299 159.085 80.4279C156.652 79.227 154.911 77.797 153.867 76.137C152.824 74.477 152.203 72.425 152.005 69.978C151.806 67.095 152.502 64.465 154.093 62.083C155.682 59.702 157.969 57.824 160.95 56.449C163.933 55.073 167.362 54.385 171.239 54.385C174.12 54.385 177.003 54.756 179.886 55.498C182.271 56.067 184.446 56.82 186.41 57.758C188.372 58.698 189.924 59.779 191.069 61.002C191.764 61.613 192.112 62.181 192.112 62.705C192.112 63.143 191.926 63.612 191.554 64.114C191.182 64.616 190.548 65.305 189.652 66.178L187.491 68.208C186.795 68.864 186.26 69.313 185.888 69.552C185.516 69.792 185.155 69.912 184.807 69.912C184.458 69.912 184.011 69.781 183.465 69.519C182.918 69.257 182.383 68.984 181.862 68.7C181.34 68.416 180.881 68.165 180.483 67.946C177.053 66.025 174.046 65.063 171.462 65.063C169.871 65.063 168.616 65.402 167.698 66.079C166.776 66.757 166.318 67.575 166.318 68.536C166.318 69.497 166.765 70.36 167.66 71.124C168.555 71.888 169.821 72.379 171.462 72.598C178.569 73.56 183.873 75.415 187.378 78.167C190.882 80.9199 192.634 84.0639 192.634 87.6019C192.634 90.2229 191.702 92.7449 189.839 95.1689C187.974 97.5929 185.39 99.5589 182.085 101.066C178.78 102.572 175.09 103.325 171.013 103.325C164.354 103.325 157.67 101.273 150.961 97.1669C148.773 95.8589 147.68 94.6149 147.68 93.4349Z" fill="#B42DCC"/>
<path d="M160.118 4.37401C160.118 6.79001 157.89 8.74802 155.141 8.74802C152.392 8.74802 150.165 6.79001 150.165 4.37401C150.165 1.958 152.392 0 155.141 0C157.89 0 160.118 1.958 160.118 4.37401Z" fill="#B42DCC"/>
<path d="M139.148 11.713C136.4 11.713 134.171 13.672 134.171 16.087C134.171 18.499 136.4 20.461 139.148 20.461C141.895 20.461 144.125 18.499 144.125 16.087C144.125 13.673 141.895 11.713 139.148 11.713Z" fill="#B42DCC"/>
<path d="M192.457 11.713C189.71 11.713 187.48 13.672 187.48 16.087C187.48 18.499 189.71 20.461 192.457 20.461C195.205 20.461 197.434 18.499 197.434 16.087C197.434 13.673 195.205 11.713 192.457 11.713Z" fill="#B42DCC"/>
<path d="M181.441 4.37401C181.441 6.79001 179.213 8.74802 176.464 8.74802C173.715 8.74802 171.487 6.79001 171.487 4.37401C171.487 1.958 173.715 0 176.464 0C179.213 0 181.441 1.958 181.441 4.37401Z" fill="#B42DCC"/>
<path d="M165.802 14.055C154.24 14.055 144.833 22.323 144.833 32.484C144.833 39.966 151.719 46.228 160.472 46.228H171.133C179.905 46.228 186.772 39.948 186.772 32.484C186.772 22.323 177.366 14.055 165.802 14.055ZM171.133 37.48H160.472C157.291 37.48 154.787 35.202 154.787 32.484C154.787 27.146 159.729 22.803 165.802 22.803C171.877 22.803 176.818 27.146 176.818 32.484C176.818 35.204 174.314 37.48 171.133 37.48Z" fill="#B42DCC"/>
</svg>
