<svg width="198" height="117" viewBox="0 0 198 117" fill="none" xmlns="http://www.w3.org/2000/svg">
<path d="M1.01575 50.7749C1.01575 50.0276 1.13636 49.2916 1.38213 48.5646C1.62563 47.8387 1.77127 47.4336 1.81565 47.3446L16.6235 10.2041C17.024 9.28018 17.6122 8.56555 18.3905 8.06024C19.1688 7.55494 20.0916 7.28034 21.1589 7.23645H26.6296H30.7645C31.9205 7.28034 32.8752 7.5887 33.633 8.15928C34.3885 8.73098 34.8994 9.41298 35.1668 10.2041L50.1077 47.3446C50.1521 47.5652 50.2852 48.0154 50.5083 48.6963C50.7301 49.3782 50.8428 50.0276 50.8428 50.6421C50.8428 52.2255 49.953 53.1495 48.1745 53.4128H39.0366C38.1036 53.4128 37.3128 53.2485 36.6699 52.9188C36.0236 52.589 35.6117 52.1164 35.4353 51.4996L33.3679 44.9037H18.4907L16.4243 51.4996C16.2457 52.1164 15.8452 52.589 15.2228 52.9188C14.5992 53.2485 13.8221 53.4128 12.8879 53.4128H3.61684C1.88278 53.1506 1.01575 52.2705 1.01575 50.7749ZM26.6285 33.7543H30.9636L25.6943 18.2519L20.4921 33.7543H26.6285V33.7543Z" fill="#9C27B0"/>
<path d="M57.972 53.3474C57.2153 53.3474 56.5611 53.0739 56.0047 52.5236C55.4472 51.9744 55.1707 51.2811 55.1707 50.445V10.0723C55.1707 9.23728 55.4472 8.53277 56.0047 7.96107C56.56 7.39049 57.2142 7.10352 57.972 7.10352H66.9768C67.7324 7.10352 68.3878 7.39049 68.9442 7.96107C69.4994 8.53277 69.7782 9.23728 69.7782 10.0723V39.6265H88.1201C88.9644 39.6265 89.6869 39.8898 90.2877 40.4176C90.8874 40.9454 91.1877 41.6061 91.1877 42.3972V50.7094C91.1877 51.4578 90.8874 52.0948 90.2877 52.6226C89.6869 53.1504 88.9644 53.4138 88.1201 53.4138H59.7061L57.972 53.3474Z" fill="#9C27B0"/>
<path d="M98.3835 53.3474C97.6279 53.3474 96.9726 53.0739 96.4162 52.5236C95.8597 51.9744 95.5833 51.2811 95.5833 50.445V10.0723C95.5833 9.23728 95.8597 8.53277 96.4162 7.96107C96.9714 7.39049 97.6268 7.10352 98.3835 7.10352H107.388C108.144 7.10352 108.799 7.39049 109.356 7.96107C109.911 8.53277 110.19 9.23728 110.19 10.0723V39.6265H128.531C129.375 39.6265 130.098 39.8898 130.699 40.4176C131.299 40.9454 131.599 41.6061 131.599 42.3972V50.7094C131.599 51.4578 131.299 52.0948 130.699 52.6226C130.098 53.1504 129.375 53.4138 128.531 53.4138H100.119L98.3835 53.3474Z" fill="#9C27B0"/>
<path d="M0 111.936V85.7603V65.2611C0 64.426 0.372073 63.7136 1.11736 63.1239C1.86264 62.5331 2.75812 62.2382 3.80265 62.2382H19.9793C27.3343 62.1899 32.9017 63.4807 36.6782 66.1096C40.4547 68.7386 42.4925 72.7337 42.7906 78.0906C42.7906 78.2876 42.802 78.7062 42.8282 79.3432C42.8521 79.9836 42.8657 80.7443 42.8657 81.6289C42.8657 82.859 42.8396 83.7424 42.7918 84.2837C42.6427 87.5283 41.7097 90.5882 39.9961 93.4636C38.2825 96.339 35.5221 98.699 31.7206 100.542C27.9191 102.386 22.9615 103.308 16.8479 103.308V111.123C16.8479 112.205 16.3371 113.113 15.3198 113.851C14.3003 114.589 13.0442 114.957 11.5547 114.957H4.10076C2.9561 114.957 1.98666 114.662 1.19245 114.072C0.397105 113.483 0 112.772 0 111.936ZM13.6427 88.9305H18.0404C20.3764 88.9305 22.4768 88.5006 24.3395 87.6397C26.2032 86.781 27.1363 84.8014 27.1363 81.7043C27.1363 79.4445 26.54 77.7598 25.3465 76.6535C24.1529 75.5484 22.3153 74.9463 19.8302 74.8472H13.6427C13.8406 74.8472 13.9408 74.7741 13.9408 74.6267V89.2254C13.9408 89.0295 13.8406 88.9305 13.6427 88.9305Z" fill="#9C27B0"/>
<path d="M66.5716 75.9534V81.9259H87.5954C88.3908 81.9259 89.0985 82.2343 89.7209 82.8488C90.341 83.4632 90.6528 84.2375 90.6528 85.1705V91.5864C90.6528 92.4225 90.341 93.1709 89.7209 93.8338C89.0985 94.4978 88.3908 94.8298 87.5954 94.8298H66.5716V101.392H88.6377C89.4819 101.392 90.2147 101.7 90.8371 102.314C91.4584 102.929 91.7701 103.727 91.7701 104.711V111.052C91.7701 111.937 91.4584 112.711 90.8371 113.374C90.2147 114.038 89.4819 114.37 88.6377 114.37H53.4512C52.6057 114.37 51.8741 114.038 51.2529 113.374C50.6293 112.711 50.3198 111.937 50.3198 111.052V110.83V104.71V72.7089V66.2941C50.3198 65.36 50.6293 64.5869 51.2529 63.9713C51.8741 63.3568 52.6057 63.0496 53.4512 63.0496H88.6377C89.4819 63.0496 90.2147 63.3568 90.8371 63.9713C91.4584 64.5869 91.7701 65.36 91.7701 66.2941V72.7089C91.7701 73.5451 91.4459 74.2946 90.8007 74.9586C90.1533 75.6214 89.433 75.9534 88.6388 75.9534H66.5716Z" fill="#9C27B0"/>
<path d="M141.568 62.9764C142.412 62.9764 143.158 63.2837 143.805 63.8981C144.449 64.5137 144.774 65.2137 144.774 66.0004V74.5534C144.774 75.3896 144.449 76.1267 143.805 76.7649C143.158 77.4052 142.412 77.7237 141.568 77.7237H129.789V111.052C129.789 111.987 129.504 112.773 128.932 113.411C128.361 114.052 127.652 114.37 126.807 114.37H116.893C116.047 114.37 115.337 114.063 114.767 113.447C114.195 112.834 113.91 112.06 113.91 111.126L114.433 77.7237H102.504C101.559 77.7237 100.778 77.4041 100.156 76.7649C99.5341 76.1279 99.2246 75.3907 99.2246 74.5534V66.0004C99.2246 65.1653 99.5341 64.4518 100.156 63.8621C100.778 63.2724 101.559 62.9776 102.504 62.9776L141.568 62.9764Z" fill="#9C27B0"/>
<path d="M147.68 105.152C147.68 104.267 148.127 103.235 149.022 102.055L151.78 98.5153C152.576 97.3854 153.208 96.5864 153.681 96.1182C154.153 95.6512 154.661 95.4182 155.21 95.4182C155.658 95.4182 156.203 95.5656 156.851 95.8605C157.497 96.1554 158.39 96.6483 159.534 97.3359C159.683 97.4338 160.95 98.2936 163.336 99.9164C165.722 101.538 168.704 102.252 172.282 102.054C173.476 102.005 174.408 101.674 175.078 101.059C175.748 100.444 176.084 99.6947 176.084 98.809C176.084 97.6296 175.487 96.5492 174.295 95.5645C173.102 94.582 171.412 94.0171 169.225 93.8697H169.299C164.925 92.984 161.52 91.8665 159.085 90.5137C156.652 89.1621 154.911 87.5528 153.867 85.6846C152.824 83.8165 152.203 81.5072 152.005 78.7533C151.806 75.5088 152.502 72.549 154.093 69.8683C155.682 67.1887 157.969 65.0752 160.95 63.5278C163.933 61.9792 167.362 61.205 171.239 61.205C174.12 61.205 177.003 61.6225 179.886 62.4575C182.271 63.0979 184.446 63.9453 186.41 65.0009C188.372 66.0588 189.924 67.2754 191.069 68.6517C191.764 69.3393 192.112 69.9786 192.112 70.5683C192.112 71.0612 191.926 71.589 191.554 72.154C191.182 72.7189 190.548 73.4943 189.652 74.4768L187.49 76.7613C186.795 77.4996 186.26 78.0049 185.888 78.2739C185.516 78.544 185.155 78.679 184.807 78.679C184.458 78.679 184.011 78.5316 183.465 78.2367C182.918 77.9419 182.383 77.6347 181.862 77.315C181.34 76.9954 180.881 76.713 180.483 76.4665C177.053 74.3046 174.046 73.222 171.462 73.222C169.871 73.222 168.616 73.6035 167.698 74.3654C166.776 75.1284 166.318 76.049 166.318 77.1305C166.318 78.212 166.765 79.1832 167.66 80.043C168.555 80.9028 169.821 81.4554 171.462 81.7018C178.569 82.7845 183.873 84.8721 187.378 87.9692C190.882 91.0674 192.634 94.6057 192.634 98.5873C192.634 101.537 191.702 104.375 189.839 107.103C187.974 109.831 185.39 112.044 182.085 113.74C178.78 115.435 175.09 116.282 171.013 116.282C164.354 116.282 157.67 113.973 150.961 109.352C148.773 107.88 147.68 106.48 147.68 105.152Z" fill="#9C27B0"/>
<path d="M160.119 4.92252C160.119 7.64149 157.891 9.84503 155.142 9.84503C152.393 9.84503 150.165 7.64149 150.165 4.92252C150.165 2.20354 152.393 0 155.142 0C157.891 0 160.119 2.20354 160.119 4.92252Z" fill="#9C27B0"/>
<path d="M139.148 13.1819C136.4 13.1819 134.171 15.3866 134.171 18.1044C134.171 20.8189 136.4 23.0269 139.148 23.0269C141.896 23.0269 144.125 20.8189 144.125 18.1044C144.125 15.3877 141.896 13.1819 139.148 13.1819Z" fill="#9C27B0"/>
<path d="M192.457 13.1819C189.71 13.1819 187.48 15.3866 187.48 18.1044C187.48 20.8189 189.71 23.0269 192.457 23.0269C195.205 23.0269 197.434 20.8189 197.434 18.1044C197.434 15.3877 195.205 13.1819 192.457 13.1819Z" fill="#9C27B0"/>
<path d="M181.441 4.92252C181.441 7.64149 179.214 9.84503 176.464 9.84503C173.715 9.84503 171.488 7.64149 171.488 4.92252C171.488 2.20354 173.715 0 176.464 0C179.214 0 181.441 2.20354 181.441 4.92252Z" fill="#9C27B0"/>
<path d="M165.803 15.8175C154.24 15.8175 144.833 25.1223 144.833 36.5576C144.833 44.9778 151.72 52.0251 160.472 52.0251H171.134C179.905 52.0251 186.772 44.9576 186.772 36.5576C186.772 25.1223 177.367 15.8175 165.803 15.8175ZM171.134 42.1801H160.472C157.292 42.1801 154.787 39.6164 154.787 36.5576C154.787 30.5502 159.729 25.6625 165.803 25.6625C171.878 25.6625 176.818 30.5502 176.818 36.5576C176.818 39.6187 174.314 42.1801 171.134 42.1801Z" fill="#9C27B0"/>
</svg>
