<svg width="207" height="110" viewBox="0 0 207 110" fill="none" xmlns="http://www.w3.org/2000/svg">
<path d="M1.19873 48.2319C1.19873 47.5289 1.32469 46.8366 1.58137 46.1526C1.83568 45.4698 1.98778 45.0887 2.03413 45.005L17.4991 10.0663C17.9174 9.19711 18.5318 8.52484 19.3446 8.04949C20.1574 7.57414 21.1211 7.31582 22.2358 7.27454H27.9493H32.2677C33.475 7.31582 34.472 7.6059 35.2635 8.14266C36.0525 8.68047 36.5861 9.32203 36.8654 10.0663L52.4693 45.005C52.5157 45.2125 52.6547 45.636 52.8876 46.2765C53.1194 46.9181 53.237 47.5289 53.237 48.107C53.237 49.5966 52.3077 50.4657 50.4504 50.7135H40.9069C39.9324 50.7135 39.1065 50.5589 38.4351 50.2487C37.7602 49.9385 37.33 49.4939 37.1458 48.9137L34.9866 42.7087H19.4491L17.2911 48.9137C17.1046 49.4939 16.6863 49.9385 16.0363 50.2487C15.385 50.5589 14.5734 50.7135 13.5978 50.7135H3.91526C2.10424 50.4668 1.19873 49.6389 1.19873 48.2319ZM27.9481 32.2203H32.4756L26.9725 17.637L21.5394 32.2203H27.9481Z" fill="white"/>
<path d="M60.6835 50.6519C59.8932 50.6519 59.21 50.3947 58.6289 49.877C58.0466 49.3603 57.7578 48.7082 57.7578 47.9216V9.94235C57.7578 9.1568 58.0466 8.49407 58.6289 7.95625C59.2088 7.4195 59.8921 7.14954 60.6835 7.14954H70.088C70.877 7.14954 71.5615 7.4195 72.1426 7.95625C72.7225 8.49407 73.0136 9.1568 73.0136 9.94235V37.7445H92.1696C93.0513 37.7445 93.8059 37.9922 94.4333 38.4887C95.0596 38.9852 95.3733 39.6067 95.3733 40.3509V48.1704C95.3733 48.8744 95.0596 49.4736 94.4333 49.9701C93.8059 50.4667 93.0513 50.7144 92.1696 50.7144H62.4945L60.6835 50.6519Z" fill="white"/>
<path d="M102.888 50.6519C102.099 50.6519 101.415 50.3947 100.834 49.877C100.253 49.3603 99.9639 48.7082 99.9639 47.9216V9.94235C99.9639 9.1568 100.253 8.49407 100.834 7.95625C101.414 7.4195 102.098 7.14954 102.888 7.14954H112.293C113.082 7.14954 113.766 7.4195 114.347 7.95625C114.927 8.49407 115.219 9.1568 115.219 9.94235V37.7445H134.373C135.255 37.7445 136.011 37.9922 136.638 38.4887C137.264 38.9852 137.578 39.6067 137.578 40.3509V48.1704C137.578 48.8744 137.264 49.4736 136.638 49.9701C136.011 50.4667 135.255 50.7144 134.373 50.7144H104.701L102.888 50.6519Z" fill="white"/>
<path d="M0.13916 105.767V81.1433V61.8594C0.13916 61.0738 0.527745 60.4037 1.3061 59.8489C2.08446 59.2931 3.01968 59.0158 4.11057 59.0158H21.0051C28.6865 58.9702 34.501 60.1845 38.4451 62.6576C42.3891 65.1307 44.5174 68.8891 44.8288 73.9284C44.8288 74.1137 44.8407 74.5075 44.868 75.1067C44.8929 75.7091 44.9072 76.4248 44.9072 77.2569C44.9072 78.414 44.8799 79.2451 44.83 79.7543C44.6743 82.8065 43.6999 85.6851 41.9102 88.39C40.1206 91.095 37.2377 93.315 33.2675 95.0491C29.2973 96.7833 24.1197 97.6503 17.7348 97.6503V105.003C17.7348 106.02 17.2012 106.875 16.1389 107.569C15.0741 108.263 13.7622 108.609 12.2067 108.609H4.42191C3.22645 108.609 2.21399 108.331 1.38453 107.777C0.553888 107.223 0.13916 106.554 0.13916 105.767ZM14.3873 84.1256H18.9802C21.4198 84.1256 23.6135 83.7212 25.5588 82.9113C27.5053 82.1036 28.4797 80.2413 28.4797 77.3278C28.4797 75.202 27.857 73.6171 26.6105 72.5765C25.3639 71.5368 23.4447 70.9704 20.8494 70.8773H14.3873C14.594 70.8773 14.6986 70.8084 14.6986 70.6698V84.403C14.6986 84.2188 14.594 84.1256 14.3873 84.1256Z" fill="white"/>
<path d="M69.6644 71.9179V77.5364H91.6212C92.4519 77.5364 93.191 77.8265 93.841 78.4045C94.4887 78.9825 94.8143 79.7109 94.8143 80.5886V86.6241C94.8143 87.4107 94.4887 88.1148 93.841 88.7383C93.191 89.363 92.4519 89.6753 91.6212 89.6753H69.6644V95.8485H92.7098C93.5915 95.8485 94.3568 96.1385 95.0068 96.7155C95.6556 97.2946 95.9812 98.0452 95.9812 98.9705V104.936C95.9812 105.768 95.6556 106.497 95.0068 107.12C94.3568 107.745 93.5915 108.057 92.7098 108.057H55.9617C55.0788 108.057 54.3147 107.745 53.6658 107.12C53.0146 106.497 52.6914 105.768 52.6914 104.936V104.727V98.9695V68.8658V62.8312C52.6914 61.9525 53.0146 61.2252 53.6658 60.6461C54.3147 60.0681 55.0788 59.7791 55.9617 59.7791H92.7098C93.5915 59.7791 94.3568 60.0681 95.0068 60.6461C95.6556 61.2252 95.9812 61.9525 95.9812 62.8312V68.8658C95.9812 69.6524 95.6426 70.3574 94.9688 70.9821C94.2926 71.6056 93.5404 71.9179 92.7109 71.9179H69.6644Z" fill="white"/>
<path d="M147.989 59.7101C148.871 59.7101 149.649 59.9991 150.326 60.5771C150.998 61.1562 151.338 61.8147 151.338 62.5548V70.6008C151.338 71.3874 150.998 72.0808 150.326 72.6811C149.649 73.2835 148.871 73.5831 147.989 73.5831H135.688V104.936C135.688 105.815 135.389 106.555 134.793 107.155C134.196 107.757 133.456 108.057 132.573 108.057H122.219C121.336 108.057 120.595 107.768 119.999 107.189C119.402 106.612 119.103 105.884 119.103 105.005L119.65 73.5831H107.191C106.205 73.5831 105.389 73.2824 104.74 72.6811C104.09 72.0819 103.767 71.3884 103.767 70.6008V62.5548C103.767 61.7692 104.09 61.098 104.74 60.5433C105.389 59.9885 106.205 59.7111 107.191 59.7111L147.989 59.7101Z" fill="white"/>
<path d="M154.373 99.3854C154.373 98.5533 154.84 97.5825 155.775 96.4719L158.655 93.1423C159.486 92.0794 160.147 91.3278 160.64 90.8873C161.133 90.448 161.664 90.2288 162.237 90.2288C162.705 90.2288 163.274 90.3675 163.951 90.6449C164.626 90.9223 165.558 91.386 166.753 92.0328C166.908 92.1249 168.232 92.9338 170.724 94.4604C173.216 95.986 176.329 96.6572 180.067 96.4708C181.313 96.4253 182.287 96.1141 182.987 95.535C183.686 94.9569 184.037 94.2518 184.037 93.4187C184.037 92.3092 183.414 91.2928 182.169 90.3665C180.924 89.4422 179.158 88.9108 176.874 88.7721H176.951C172.383 87.9389 168.827 86.8876 166.284 85.6151C163.743 84.3436 161.924 82.8297 160.835 81.0723C159.745 79.3149 159.096 77.1425 158.889 74.5519C158.681 71.4997 159.409 68.7153 161.07 66.1936C162.73 63.6728 165.119 61.6846 168.232 60.2289C171.347 58.7722 174.928 58.0438 178.977 58.0438C181.986 58.0438 184.997 58.4366 188.008 59.2221C190.499 59.8245 192.77 60.6217 194.821 61.6148C196.871 62.6099 198.492 63.7544 199.687 65.0491C200.413 65.696 200.777 66.2973 200.777 66.8521C200.777 67.3158 200.582 67.8123 200.194 68.3437C199.805 68.8752 199.143 69.6046 198.208 70.5289L195.95 72.678C195.224 73.3725 194.665 73.8478 194.277 74.1009C193.888 74.355 193.51 74.482 193.148 74.482C192.783 74.482 192.316 74.3433 191.746 74.0659C191.174 73.7886 190.616 73.4995 190.071 73.1989C189.527 72.8982 189.047 72.6325 188.631 72.4006C185.049 70.3669 181.909 69.3484 179.21 69.3484C177.549 69.3484 176.238 69.7073 175.279 70.4241C174.316 71.1419 173.838 72.0079 173.838 73.0253C173.838 74.0426 174.305 74.9563 175.24 75.7651C176.174 76.574 177.496 77.0938 179.21 77.3256C186.632 78.3441 192.172 80.3079 195.832 83.2214C199.492 86.136 201.321 89.4645 201.321 93.2101C201.321 95.9849 200.348 98.6549 198.403 101.221C196.455 103.787 193.756 105.869 190.304 107.464C186.853 109.059 183 109.856 178.742 109.856C171.786 109.856 164.806 107.683 157.8 103.336C155.515 101.952 154.373 100.635 154.373 99.3854Z" fill="white"/>
<path d="M167.364 5.09786C167.364 7.65565 165.037 9.72856 162.166 9.72856C159.295 9.72856 156.968 7.65565 156.968 5.09786C156.968 2.54007 159.295 0.467163 162.166 0.467163C165.037 0.467163 167.364 2.54007 167.364 5.09786Z" fill="white"/>
<path d="M145.462 12.8676C142.592 12.8676 140.264 14.9415 140.264 17.4983C140.264 20.0518 142.592 22.129 145.462 22.129C148.332 22.129 150.66 20.0518 150.66 17.4983C150.66 14.9426 148.332 12.8676 145.462 12.8676Z" fill="white"/>
<path d="M201.137 12.8676C198.268 12.8676 195.939 14.9415 195.939 17.4983C195.939 20.0518 198.268 22.129 201.137 22.129C204.006 22.129 206.334 20.0518 206.334 17.4983C206.334 14.9426 204.006 12.8676 201.137 12.8676Z" fill="white"/>
<path d="M189.632 5.09786C189.632 7.65565 187.306 9.72856 184.435 9.72856C181.564 9.72856 179.237 7.65565 179.237 5.09786C179.237 2.54007 181.564 0.467163 184.435 0.467163C187.306 0.467163 189.632 2.54007 189.632 5.09786Z" fill="white"/>
<path d="M173.3 15.3469C161.224 15.3469 151.4 24.1001 151.4 34.8575C151.4 42.7786 158.592 49.4081 167.732 49.4081H178.867C188.028 49.4081 195.2 42.7595 195.2 34.8575C195.2 24.1001 185.377 15.3469 173.3 15.3469ZM178.867 40.1467H167.732C164.411 40.1467 161.795 37.735 161.795 34.8575C161.795 29.2062 166.956 24.6083 173.3 24.6083C179.644 24.6083 184.804 29.2062 184.804 34.8575C184.804 37.7371 182.188 40.1467 178.867 40.1467Z" fill="white"/>
</svg>
